<mxfile host="drawio-plugin" modified="2022-10-18T07:50:54.771Z" agent="5.0 (Windows NT 6.1; Win64; x64) AppleWebKit/537.36 (KHTML, like Gecko) Chrome/89.0.4389.114 Safari/537.36" etag="CLwHOdisLvgO48DZ2_2C" version="15.5.4" type="embed" pages="2"><diagram id="C5RBs43oDa-KdzZeNtuy" name="Page-1"><mxGraphModel dx="1069" dy="878" grid="1" gridSize="10" guides="1" tooltips="1" connect="1" arrows="1" fold="1" page="0" pageScale="1" pageWidth="827" pageHeight="1169" background="none" math="0" shadow="1"><root><mxCell id="WIyWlLk6GJQsqaUBKTNV-0"/><mxCell id="WIyWlLk6GJQsqaUBKTNV-1" parent="WIyWlLk6GJQsqaUBKTNV-0"/><mxCell id="zkfFHV4jXpPFQw0GAbJ--0" value="Resume" style="swimlane;fontStyle=1;align=center;verticalAlign=top;childLayout=stackLayout;horizontal=1;startSize=26;horizontalStack=0;resizeParent=1;resizeLast=0;collapsible=1;marginBottom=0;rounded=0;shadow=0;strokeWidth=1;" parent="WIyWlLk6GJQsqaUBKTNV-1" vertex="1"><mxGeometry x="220" y="48" width="221" height="132" as="geometry"><mxRectangle x="410" y="60" width="160" height="26" as="alternateBounds"/></mxGeometry></mxCell><mxCell id="zkfFHV4jXpPFQw0GAbJ--1" value="- fullName: String" style="text;align=left;verticalAlign=top;spacingLeft=4;spacingRight=4;overflow=hidden;rotatable=0;points=[[0,0.5],[1,0.5]];portConstraint=eastwest;" parent="zkfFHV4jXpPFQw0GAbJ--0" vertex="1"><mxGeometry y="26" width="221" height="26" as="geometry"/></mxCell><mxCell id="7t9niggF4spHzua_uZJ9-34" value="- uuid: String" style="text;align=left;verticalAlign=top;spacingLeft=4;spacingRight=4;overflow=hidden;rotatable=0;points=[[0,0.5],[1,0.5]];portConstraint=eastwest;" parent="zkfFHV4jXpPFQw0GAbJ--0" vertex="1"><mxGeometry y="52" width="221" height="26" as="geometry"/></mxCell><mxCell id="L-c263d7xo3cQldvHyhp-19" value="- sections: Map&lt;SectionType, Section&gt;" style="text;align=left;verticalAlign=top;spacingLeft=4;spacingRight=4;overflow=hidden;rotatable=0;points=[[0,0.5],[1,0.5]];portConstraint=eastwest;rounded=0;shadow=0;html=0;" parent="zkfFHV4jXpPFQw0GAbJ--0" vertex="1"><mxGeometry y="78" width="221" height="26" as="geometry"/></mxCell><mxCell id="7t9niggF4spHzua_uZJ9-16" style="edgeStyle=orthogonalEdgeStyle;rounded=0;orthogonalLoop=1;jettySize=auto;html=1;exitX=1;exitY=0.5;exitDx=0;exitDy=0;strokeWidth=2;fontSize=15;endArrow=block;endFill=1;" parent="zkfFHV4jXpPFQw0GAbJ--0" edge="1"><mxGeometry relative="1" as="geometry"><mxPoint x="191" y="63" as="sourcePoint"/><mxPoint x="191" y="63" as="targetPoint"/></mxGeometry></mxCell><mxCell id="7t9niggF4spHzua_uZJ9-32" value="- contacts: Map&lt;ContactType, String&gt;" style="text;align=left;verticalAlign=top;spacingLeft=4;spacingRight=4;overflow=hidden;rotatable=0;points=[[0,0.5],[1,0.5]];portConstraint=eastwest;rounded=0;shadow=0;html=0;" parent="zkfFHV4jXpPFQw0GAbJ--0" vertex="1"><mxGeometry y="104" width="221" height="26" as="geometry"/></mxCell><mxCell id="7t9niggF4spHzua_uZJ9-35" style="edgeStyle=orthogonalEdgeStyle;rounded=0;orthogonalLoop=1;jettySize=auto;html=1;entryX=0.5;entryY=1;entryDx=0;entryDy=0;dashed=1;strokeWidth=1;fontSize=15;endArrow=block;endFill=0;endSize=20;" parent="WIyWlLk6GJQsqaUBKTNV-1" target="7t9niggF4spHzua_uZJ9-18" edge="1"><mxGeometry relative="1" as="geometry"><mxPoint x="710" y="140" as="sourcePoint"/></mxGeometry></mxCell><mxCell id="zkfFHV4jXpPFQw0GAbJ--6" value="TextSection" style="swimlane;fontStyle=1;align=center;verticalAlign=top;childLayout=stackLayout;horizontal=1;startSize=26;horizontalStack=0;resizeParent=1;resizeLast=0;collapsible=1;marginBottom=0;rounded=0;shadow=0;strokeWidth=1;" parent="WIyWlLk6GJQsqaUBKTNV-1" vertex="1"><mxGeometry x="660" y="145" width="90" height="55" as="geometry"><mxRectangle x="60" y="59" width="160" height="26" as="alternateBounds"/></mxGeometry></mxCell><mxCell id="zkfFHV4jXpPFQw0GAbJ--8" value="-text: String" style="text;align=left;verticalAlign=top;spacingLeft=4;spacingRight=4;overflow=hidden;rotatable=0;points=[[0,0.5],[1,0.5]];portConstraint=eastwest;rounded=0;shadow=0;html=0;" parent="zkfFHV4jXpPFQw0GAbJ--6" vertex="1"><mxGeometry y="26" width="90" height="24" as="geometry"/></mxCell><mxCell id="7t9niggF4spHzua_uZJ9-43" style="edgeStyle=orthogonalEdgeStyle;rounded=0;orthogonalLoop=1;jettySize=auto;html=1;exitX=0.5;exitY=0;exitDx=0;exitDy=0;entryX=0.5;entryY=1;entryDx=0;entryDy=0;strokeWidth=1;fontSize=15;endArrow=none;endFill=0;endSize=20;startArrow=open;startFill=0;targetPerimeterSpacing=20;sourcePerimeterSpacing=20;startSize=20;" parent="WIyWlLk6GJQsqaUBKTNV-1" source="zkfFHV4jXpPFQw0GAbJ--17" target="zkfFHV4jXpPFQw0GAbJ--0" edge="1"><mxGeometry relative="1" as="geometry"/></mxCell><mxCell id="zkfFHV4jXpPFQw0GAbJ--17" value="&lt;&lt;enumeration&gt;&gt;&#10;ContactType" style="swimlane;fontStyle=1;align=center;verticalAlign=top;childLayout=stackLayout;horizontal=1;startSize=40;horizontalStack=0;resizeParent=1;resizeLast=0;collapsible=1;marginBottom=0;rounded=0;shadow=0;strokeWidth=1;" parent="WIyWlLk6GJQsqaUBKTNV-1" vertex="1"><mxGeometry x="330" y="250" width="140" height="222" as="geometry"><mxRectangle x="550" y="140" width="160" height="26" as="alternateBounds"/></mxGeometry></mxCell><mxCell id="zkfFHV4jXpPFQw0GAbJ--18" value="phone" style="text;align=left;verticalAlign=top;spacingLeft=4;spacingRight=4;overflow=hidden;rotatable=0;points=[[0,0.5],[1,0.5]];portConstraint=eastwest;" parent="zkfFHV4jXpPFQw0GAbJ--17" vertex="1"><mxGeometry y="40" width="140" height="26" as="geometry"/></mxCell><mxCell id="zkfFHV4jXpPFQw0GAbJ--19" value="skype" style="text;align=left;verticalAlign=top;spacingLeft=4;spacingRight=4;overflow=hidden;rotatable=0;points=[[0,0.5],[1,0.5]];portConstraint=eastwest;rounded=0;shadow=0;html=0;" parent="zkfFHV4jXpPFQw0GAbJ--17" vertex="1"><mxGeometry y="66" width="140" height="26" as="geometry"/></mxCell><mxCell id="zkfFHV4jXpPFQw0GAbJ--20" value="email" style="text;align=left;verticalAlign=top;spacingLeft=4;spacingRight=4;overflow=hidden;rotatable=0;points=[[0,0.5],[1,0.5]];portConstraint=eastwest;rounded=0;shadow=0;html=0;" parent="zkfFHV4jXpPFQw0GAbJ--17" vertex="1"><mxGeometry y="92" width="140" height="26" as="geometry"/></mxCell><mxCell id="zkfFHV4jXpPFQw0GAbJ--21" value="linkedIn" style="text;align=left;verticalAlign=top;spacingLeft=4;spacingRight=4;overflow=hidden;rotatable=0;points=[[0,0.5],[1,0.5]];portConstraint=eastwest;rounded=0;shadow=0;html=0;" parent="zkfFHV4jXpPFQw0GAbJ--17" vertex="1"><mxGeometry y="118" width="140" height="26" as="geometry"/></mxCell><mxCell id="zkfFHV4jXpPFQw0GAbJ--22" value="gitHub" style="text;align=left;verticalAlign=top;spacingLeft=4;spacingRight=4;overflow=hidden;rotatable=0;points=[[0,0.5],[1,0.5]];portConstraint=eastwest;rounded=0;shadow=0;html=0;" parent="zkfFHV4jXpPFQw0GAbJ--17" vertex="1"><mxGeometry y="144" width="140" height="26" as="geometry"/></mxCell><mxCell id="L-c263d7xo3cQldvHyhp-21" value="stackOverFlow" style="text;align=left;verticalAlign=top;spacingLeft=4;spacingRight=4;overflow=hidden;rotatable=0;points=[[0,0.5],[1,0.5]];portConstraint=eastwest;rounded=0;shadow=0;html=0;" parent="zkfFHV4jXpPFQw0GAbJ--17" vertex="1"><mxGeometry y="170" width="140" height="26" as="geometry"/></mxCell><mxCell id="L-c263d7xo3cQldvHyhp-22" value="homePage" style="text;align=left;verticalAlign=top;spacingLeft=4;spacingRight=4;overflow=hidden;rotatable=0;points=[[0,0.5],[1,0.5]];portConstraint=eastwest;rounded=0;shadow=0;html=0;" parent="zkfFHV4jXpPFQw0GAbJ--17" vertex="1"><mxGeometry y="196" width="140" height="26" as="geometry"/></mxCell><mxCell id="L-c263d7xo3cQldvHyhp-24" value="position&lt;br&gt;personal" style="text;html=1;resizable=0;autosize=1;align=left;verticalAlign=middle;points=[];fillColor=none;strokeColor=none;rounded=0;fontSize=15;" parent="WIyWlLk6GJQsqaUBKTNV-1" vertex="1"><mxGeometry x="660" y="200" width="80" height="50" as="geometry"/></mxCell><mxCell id="7t9niggF4spHzua_uZJ9-56" style="edgeStyle=orthogonalEdgeStyle;rounded=0;orthogonalLoop=1;jettySize=auto;html=1;exitX=0.5;exitY=0;exitDx=0;exitDy=0;strokeWidth=1;fontSize=15;endArrow=diamondThin;endFill=1;endSize=20;entryX=0.5;entryY=1;entryDx=0;entryDy=0;" parent="WIyWlLk6GJQsqaUBKTNV-1" source="L-c263d7xo3cQldvHyhp-26" target="7t9niggF4spHzua_uZJ9-45" edge="1"><mxGeometry relative="1" as="geometry"><mxPoint x="920" y="100" as="targetPoint"/></mxGeometry></mxCell><mxCell id="L-c263d7xo3cQldvHyhp-26" value="Company" style="swimlane;fontStyle=1;align=center;verticalAlign=top;childLayout=stackLayout;horizontal=1;startSize=26;horizontalStack=0;resizeParent=1;resizeLast=0;collapsible=1;marginBottom=0;rounded=0;shadow=0;strokeWidth=1;" parent="WIyWlLk6GJQsqaUBKTNV-1" vertex="1"><mxGeometry x="893.75" y="158" width="122.5" height="92" as="geometry"><mxRectangle x="130" y="380" width="160" height="26" as="alternateBounds"/></mxGeometry></mxCell><mxCell id="L-c263d7xo3cQldvHyhp-32" value="-periods: List&lt;Period&gt;&#10;" style="text;align=left;verticalAlign=top;spacingLeft=4;spacingRight=4;overflow=hidden;rotatable=0;points=[[0,0.5],[1,0.5]];portConstraint=eastwest;rounded=0;shadow=0;html=0;" parent="L-c263d7xo3cQldvHyhp-26" vertex="1"><mxGeometry y="26" width="122.5" height="20" as="geometry"/></mxCell><mxCell id="L-c263d7xo3cQldvHyhp-33" value="-name: String" style="text;align=left;verticalAlign=top;spacingLeft=4;spacingRight=4;overflow=hidden;rotatable=0;points=[[0,0.5],[1,0.5]];portConstraint=eastwest;rounded=0;shadow=0;html=0;" parent="L-c263d7xo3cQldvHyhp-26" vertex="1"><mxGeometry y="46" width="122.5" height="20" as="geometry"/></mxCell><mxCell id="L-c263d7xo3cQldvHyhp-30" value="education&lt;br&gt;organization" style="text;html=1;resizable=0;autosize=1;align=right;verticalAlign=middle;points=[];fillColor=none;strokeColor=none;rounded=0;fontSize=15;" parent="WIyWlLk6GJQsqaUBKTNV-1" vertex="1"><mxGeometry x="783.75" y="200" width="110" height="50" as="geometry"/></mxCell><mxCell id="7t9niggF4spHzua_uZJ9-44" style="edgeStyle=orthogonalEdgeStyle;rounded=0;orthogonalLoop=1;jettySize=auto;html=1;exitX=0.5;exitY=0;exitDx=0;exitDy=0;strokeWidth=1;fontSize=15;endArrow=none;endFill=0;endSize=20;startArrow=open;startFill=0;startSize=20;entryX=0.25;entryY=1;entryDx=0;entryDy=0;" parent="WIyWlLk6GJQsqaUBKTNV-1" source="7t9niggF4spHzua_uZJ9-7" target="zkfFHV4jXpPFQw0GAbJ--0" edge="1"><mxGeometry relative="1" as="geometry"/></mxCell><mxCell id="7t9niggF4spHzua_uZJ9-7" value="&lt;&lt;enumeration&gt;&gt;&#10;SectionType" style="swimlane;fontStyle=1;align=center;verticalAlign=top;childLayout=stackLayout;horizontal=1;startSize=42;horizontalStack=0;resizeParent=1;resizeLast=0;collapsible=1;marginBottom=0;rounded=0;shadow=0;strokeWidth=1;" parent="WIyWlLk6GJQsqaUBKTNV-1" vertex="1"><mxGeometry x="170" y="250" width="140" height="202" as="geometry"><mxRectangle x="550" y="140" width="160" height="26" as="alternateBounds"/></mxGeometry></mxCell><mxCell id="7t9niggF4spHzua_uZJ9-8" value="ACHIEVEMENT" style="text;align=left;verticalAlign=top;spacingLeft=4;spacingRight=4;overflow=hidden;rotatable=0;points=[[0,0.5],[1,0.5]];portConstraint=eastwest;" parent="7t9niggF4spHzua_uZJ9-7" vertex="1"><mxGeometry y="42" width="140" height="26" as="geometry"/></mxCell><mxCell id="7t9niggF4spHzua_uZJ9-9" value="OBJECTIVE" style="text;align=left;verticalAlign=top;spacingLeft=4;spacingRight=4;overflow=hidden;rotatable=0;points=[[0,0.5],[1,0.5]];portConstraint=eastwest;rounded=0;shadow=0;html=0;" parent="7t9niggF4spHzua_uZJ9-7" vertex="1"><mxGeometry y="68" width="140" height="26" as="geometry"/></mxCell><mxCell id="7t9niggF4spHzua_uZJ9-10" value="PERSONAL" style="text;align=left;verticalAlign=top;spacingLeft=4;spacingRight=4;overflow=hidden;rotatable=0;points=[[0,0.5],[1,0.5]];portConstraint=eastwest;rounded=0;shadow=0;html=0;" parent="7t9niggF4spHzua_uZJ9-7" vertex="1"><mxGeometry y="94" width="140" height="26" as="geometry"/></mxCell><mxCell id="7t9niggF4spHzua_uZJ9-11" value="EXPIRIENCE" style="text;align=left;verticalAlign=top;spacingLeft=4;spacingRight=4;overflow=hidden;rotatable=0;points=[[0,0.5],[1,0.5]];portConstraint=eastwest;rounded=0;shadow=0;html=0;" parent="7t9niggF4spHzua_uZJ9-7" vertex="1"><mxGeometry y="120" width="140" height="26" as="geometry"/></mxCell><mxCell id="7t9niggF4spHzua_uZJ9-12" value="QUALIFICATION" style="text;align=left;verticalAlign=top;spacingLeft=4;spacingRight=4;overflow=hidden;rotatable=0;points=[[0,0.5],[1,0.5]];portConstraint=eastwest;rounded=0;shadow=0;html=0;" parent="7t9niggF4spHzua_uZJ9-7" vertex="1"><mxGeometry y="146" width="140" height="26" as="geometry"/></mxCell><mxCell id="7t9niggF4spHzua_uZJ9-13" value="EDUCATION" style="text;align=left;verticalAlign=top;spacingLeft=4;spacingRight=4;overflow=hidden;rotatable=0;points=[[0,0.5],[1,0.5]];portConstraint=eastwest;rounded=0;shadow=0;html=0;" parent="7t9niggF4spHzua_uZJ9-7" vertex="1"><mxGeometry y="172" width="140" height="26" as="geometry"/></mxCell><mxCell id="7t9niggF4spHzua_uZJ9-28" style="edgeStyle=orthogonalEdgeStyle;rounded=0;orthogonalLoop=1;jettySize=auto;html=1;exitX=0;exitY=0.5;exitDx=0;exitDy=0;entryX=1;entryY=-0.077;entryDx=0;entryDy=0;entryPerimeter=0;strokeWidth=1;fontSize=15;endArrow=diamondThin;endFill=1;endSize=20;" parent="WIyWlLk6GJQsqaUBKTNV-1" source="7t9niggF4spHzua_uZJ9-18" target="L-c263d7xo3cQldvHyhp-19" edge="1"><mxGeometry relative="1" as="geometry"/></mxCell><mxCell id="7t9niggF4spHzua_uZJ9-18" value="Section" style="swimlane;fontStyle=3;align=center;verticalAlign=top;childLayout=stackLayout;horizontal=1;startSize=41;horizontalStack=0;resizeParent=1;resizeLast=0;collapsible=1;marginBottom=0;rounded=0;shadow=0;strokeWidth=1;" parent="WIyWlLk6GJQsqaUBKTNV-1" vertex="1"><mxGeometry x="620" y="48" width="160" height="30" as="geometry"><mxRectangle x="550" y="140" width="160" height="26" as="alternateBounds"/></mxGeometry></mxCell><mxCell id="7t9niggF4spHzua_uZJ9-36" value="&lt;span style=&quot;&quot;&gt;achievement&lt;/span&gt;&lt;br style=&quot;&quot;&gt;&lt;span style=&quot;&quot;&gt;qualification&lt;/span&gt;" style="text;html=1;align=left;verticalAlign=middle;resizable=0;points=[];autosize=1;strokeColor=none;fillColor=none;fontSize=15;" parent="WIyWlLk6GJQsqaUBKTNV-1" vertex="1"><mxGeometry x="530" y="205" width="110" height="50" as="geometry"/></mxCell><mxCell id="7t9niggF4spHzua_uZJ9-59" style="edgeStyle=orthogonalEdgeStyle;rounded=0;orthogonalLoop=1;jettySize=auto;html=1;exitX=0.5;exitY=0;exitDx=0;exitDy=0;entryX=0.25;entryY=1;entryDx=0;entryDy=0;dashed=1;strokeWidth=1;fontSize=15;endArrow=block;endFill=0;endSize=20;" parent="WIyWlLk6GJQsqaUBKTNV-1" source="7t9niggF4spHzua_uZJ9-38" target="7t9niggF4spHzua_uZJ9-18" edge="1"><mxGeometry relative="1" as="geometry"/></mxCell><mxCell id="7t9niggF4spHzua_uZJ9-38" value="ListSection" style="swimlane;fontStyle=1;align=center;verticalAlign=top;childLayout=stackLayout;horizontal=1;startSize=26;horizontalStack=0;resizeParent=1;resizeLast=0;collapsible=1;marginBottom=0;rounded=0;shadow=0;strokeWidth=1;" parent="WIyWlLk6GJQsqaUBKTNV-1" vertex="1"><mxGeometry x="530" y="145" width="100" height="60" as="geometry"><mxRectangle x="60" y="59" width="160" height="26" as="alternateBounds"/></mxGeometry></mxCell><mxCell id="7t9niggF4spHzua_uZJ9-39" value="-List: List&lt;String&gt;" style="text;align=left;verticalAlign=top;spacingLeft=4;spacingRight=4;overflow=hidden;rotatable=0;points=[[0,0.5],[1,0.5]];portConstraint=eastwest;rounded=0;shadow=0;html=0;" parent="7t9niggF4spHzua_uZJ9-38" vertex="1"><mxGeometry y="26" width="100" height="20" as="geometry"/></mxCell><mxCell id="7t9niggF4spHzua_uZJ9-45" value="CompanySection" style="swimlane;fontStyle=1;align=center;verticalAlign=top;childLayout=stackLayout;horizontal=1;startSize=26;horizontalStack=0;resizeParent=1;resizeLast=0;collapsible=1;marginBottom=0;rounded=0;shadow=0;strokeWidth=1;" parent="WIyWlLk6GJQsqaUBKTNV-1" vertex="1"><mxGeometry x="860" y="38" width="190" height="62" as="geometry"><mxRectangle x="130" y="380" width="160" height="26" as="alternateBounds"/></mxGeometry></mxCell><mxCell id="7t9niggF4spHzua_uZJ9-50" value="-organizations: List&lt;Companyt&gt;" style="text;align=left;verticalAlign=top;spacingLeft=4;spacingRight=4;overflow=hidden;rotatable=0;points=[[0,0.5],[1,0.5]];portConstraint=eastwest;rounded=0;shadow=0;html=0;" parent="7t9niggF4spHzua_uZJ9-45" vertex="1"><mxGeometry y="26" width="190" height="16" as="geometry"/></mxCell><mxCell id="7t9niggF4spHzua_uZJ9-57" style="edgeStyle=orthogonalEdgeStyle;rounded=0;orthogonalLoop=1;jettySize=auto;html=1;exitX=0;exitY=0.5;exitDx=0;exitDy=0;strokeWidth=1;fontSize=15;endArrow=block;endFill=0;endSize=20;entryX=1;entryY=0.5;entryDx=0;entryDy=0;dashed=1;" parent="WIyWlLk6GJQsqaUBKTNV-1" source="7t9niggF4spHzua_uZJ9-50" target="7t9niggF4spHzua_uZJ9-18" edge="1"><mxGeometry relative="1" as="geometry"><mxPoint x="820" y="100" as="targetPoint"/><Array as="points"><mxPoint x="825" y="72"/><mxPoint x="825" y="69"/></Array></mxGeometry></mxCell><mxCell id="DyFda8IW0uDLHZJrdNcc-0" value="Period" style="swimlane;fontStyle=1;align=center;verticalAlign=top;childLayout=stackLayout;horizontal=1;startSize=26;horizontalStack=0;resizeParent=1;resizeLast=0;collapsible=1;marginBottom=0;rounded=0;shadow=0;strokeWidth=1;" parent="WIyWlLk6GJQsqaUBKTNV-1" vertex="1"><mxGeometry x="887.5" y="330" width="135" height="120" as="geometry"><mxRectangle x="130" y="380" width="160" height="26" as="alternateBounds"/></mxGeometry></mxCell><mxCell id="DyFda8IW0uDLHZJrdNcc-1" value="-startDate: LocalDate&#10;" style="text;align=left;verticalAlign=top;spacingLeft=4;spacingRight=4;overflow=hidden;rotatable=0;points=[[0,0.5],[1,0.5]];portConstraint=eastwest;rounded=0;shadow=0;html=0;" parent="DyFda8IW0uDLHZJrdNcc-0" vertex="1"><mxGeometry y="26" width="135" height="24" as="geometry"/></mxCell><mxCell id="DyFda8IW0uDLHZJrdNcc-2" value="-endDate: LocalDate&#10;" style="text;align=left;verticalAlign=top;spacingLeft=4;spacingRight=4;overflow=hidden;rotatable=0;points=[[0,0.5],[1,0.5]];portConstraint=eastwest;rounded=0;shadow=0;html=0;" parent="DyFda8IW0uDLHZJrdNcc-0" vertex="1"><mxGeometry y="50" width="135" height="20" as="geometry"/></mxCell><mxCell id="DyFda8IW0uDLHZJrdNcc-12" value="-position: String" style="text;align=left;verticalAlign=top;spacingLeft=4;spacingRight=4;overflow=hidden;rotatable=0;points=[[0,0.5],[1,0.5]];portConstraint=eastwest;rounded=0;shadow=0;html=0;" parent="DyFda8IW0uDLHZJrdNcc-0" vertex="1"><mxGeometry y="70" width="135" height="20" as="geometry"/></mxCell><mxCell id="DyFda8IW0uDLHZJrdNcc-6" value="-description: String" style="text;align=left;verticalAlign=top;spacingLeft=4;spacingRight=4;overflow=hidden;rotatable=0;points=[[0,0.5],[1,0.5]];portConstraint=eastwest;rounded=0;shadow=0;html=0;" parent="DyFda8IW0uDLHZJrdNcc-0" vertex="1"><mxGeometry y="90" width="135" height="30" as="geometry"/></mxCell><mxCell id="DyFda8IW0uDLHZJrdNcc-7" style="edgeStyle=orthogonalEdgeStyle;rounded=0;orthogonalLoop=1;jettySize=auto;html=1;strokeWidth=1;fontSize=15;endArrow=diamondThin;endFill=1;endSize=20;entryX=0.443;entryY=1.154;entryDx=0;entryDy=0;entryPerimeter=0;exitX=0.5;exitY=0;exitDx=0;exitDy=0;" parent="WIyWlLk6GJQsqaUBKTNV-1" source="DyFda8IW0uDLHZJrdNcc-0" edge="1"><mxGeometry relative="1" as="geometry"><mxPoint x="948.0174999999999" y="254.0039999999999" as="targetPoint"/><mxPoint x="990" y="280" as="sourcePoint"/><Array as="points"><mxPoint x="948" y="330"/></Array></mxGeometry></mxCell><mxCell id="DyFda8IW0uDLHZJrdNcc-16" style="edgeStyle=orthogonalEdgeStyle;rounded=0;orthogonalLoop=1;jettySize=auto;html=1;exitX=0;exitY=0.5;exitDx=0;exitDy=0;entryX=0.5;entryY=0;entryDx=0;entryDy=0;endArrow=diamondThin;endFill=1;endSize=20;" parent="WIyWlLk6GJQsqaUBKTNV-1" source="DyFda8IW0uDLHZJrdNcc-9" target="zkfFHV4jXpPFQw0GAbJ--0" edge="1"><mxGeometry relative="1" as="geometry"/></mxCell><mxCell id="DyFda8IW0uDLHZJrdNcc-9" value="String" style="swimlane;fontStyle=1;align=center;verticalAlign=top;childLayout=stackLayout;horizontal=1;startSize=20;horizontalStack=0;resizeParent=1;resizeLast=0;collapsible=1;marginBottom=0;rounded=0;shadow=0;strokeWidth=1;" parent="WIyWlLk6GJQsqaUBKTNV-1" vertex="1"><mxGeometry x="675" y="-20" width="60" height="50" as="geometry"><mxRectangle x="60" y="59" width="160" height="26" as="alternateBounds"/></mxGeometry></mxCell></root></mxGraphModel></diagram><diagram id="6A0adtHOYoKGvTJggQ48" name="Страница 2"><mxGraphModel dx="1069" dy="452" grid="1" gridSize="10" guides="1" tooltips="1" connect="1" arrows="1" fold="1" page="1" pageScale="1" pageWidth="827" pageHeight="1169" math="0" shadow="0"><root><mxCell id="0"/><mxCell id="1" parent="0"/></root></mxGraphModel></diagram></mxfile>